# Blender v2.82 (sub 7) OBJ File: 'BalconyEindhoven.blend'
# www.blender.org
mtllib EindhovenBalcony.mtl
o Balcony_Cube
v 1.920000 0.665000 2.620000
v 1.920000 0.665000 0.000000
v 1.920000 -0.665000 2.620000
v 1.920000 -0.665000 0.000000
v -1.920000 0.665000 2.620000
v -1.920000 0.665000 0.000000
v -1.920000 -0.665000 2.620000
v -1.920000 -0.665000 0.000000
v 0.000000 0.665000 0.000000
v 1.920000 0.665000 1.170000
v -1.920000 0.665000 1.170000
vt 0.875000 0.500000
vt 0.625000 0.750000
vt 0.625000 0.500000
vt 0.375000 1.000000
vt 0.375000 0.750000
vt 0.250000 0.500000
vt 0.125000 0.750000
vt 0.500000 0.500000
vt 0.375000 0.500000
vt 0.375000 0.375000
vt 0.875000 0.750000
vt 0.625000 1.000000
vt 0.125000 0.500000
vt 0.375000 0.250000
vt 0.500000 0.250000
vn 0.0000 0.0000 1.0000
vn 0.0000 -1.0000 0.0000
vn 0.0000 0.0000 -1.0000
vn 0.0000 1.0000 0.0000
usemtl None
s off
f 5/1/1 3/2/1 1/3/1
f 3/2/2 8/4/2 4/5/2
f 9/6/3 4/5/3 8/7/3
f 10/8/4 2/9/4 9/10/4
f 5/1/1 7/11/1 3/2/1
f 3/2/2 7/12/2 8/4/2
f 8/7/3 6/13/3 9/6/3
f 9/6/3 2/9/3 4/5/3
f 9/10/4 6/14/4 11/15/4
f 11/15/4 10/8/4 9/10/4
o RNeighbour_Cube.002
v 5.750999 0.665000 2.620000
v 5.750999 0.665000 0.000000
v 5.750999 -0.665000 2.620000
v 5.750999 -0.665000 0.000000
v 1.910999 0.665000 2.620000
v 1.910999 0.665000 0.000000
v 1.910999 -0.665000 2.620000
v 1.910999 -0.665000 0.000000
v 3.830999 0.665000 0.000000
v 5.750999 0.665000 1.170000
v 1.910999 0.665000 1.170000
vt 0.875000 0.500000
vt 0.625000 0.750000
vt 0.625000 0.500000
vt 0.375000 1.000000
vt 0.375000 0.750000
vt 0.250000 0.500000
vt 0.125000 0.750000
vt 0.500000 0.500000
vt 0.375000 0.500000
vt 0.375000 0.375000
vt 0.875000 0.750000
vt 0.625000 1.000000
vt 0.125000 0.500000
vt 0.375000 0.250000
vt 0.500000 0.250000
vn 0.0000 0.0000 1.0000
vn 0.0000 -1.0000 0.0000
vn 0.0000 0.0000 -1.0000
vn 1.0000 0.0000 0.0000
vn 0.0000 1.0000 0.0000
usemtl Material
s off
f 16/16/5 14/17/5 12/18/5
f 14/17/6 19/19/6 15/20/6
f 20/21/7 15/20/7 19/22/7
f 21/23/8 14/17/8 15/20/8
f 21/23/9 13/24/9 20/25/9
f 16/16/5 18/26/5 14/17/5
f 14/17/6 18/27/6 19/19/6
f 19/22/7 17/28/7 20/21/7
f 20/21/7 13/24/7 15/20/7
f 15/20/8 13/24/8 21/23/8
f 21/23/8 12/18/8 14/17/8
f 20/25/9 17/29/9 22/30/9
f 22/30/9 21/23/9 20/25/9
o Table_Plane
v -0.350000 -0.046075 1.100000
v 0.350000 -0.046075 1.100000
v -0.350000 0.653925 1.100000
v 0.350000 0.653925 1.100000
vt 1.000000 0.000000
vt 0.000000 1.000000
vt 0.000000 0.000000
vt 1.000000 1.000000
vn 0.0000 0.0000 1.0000
usemtl None
s off
f 24/31/10 25/32/10 23/33/10
f 24/31/10 26/34/10 25/32/10
o GlassSide_Plane.002
v -1.920000 -0.665000 2.620000
v -1.920000 0.665000 2.620000
v -1.920000 -0.665000 -0.000000
v -1.920000 0.665000 -0.000000
vt 0.000000 0.000000
vt 1.000000 0.000000
vt 1.000000 1.000000
vt 0.000000 1.000000
vn -1.0000 0.0000 0.0000
usemtl Glass
s off
f 27/35/11 28/36/11 30/37/11 29/38/11
o GlassSide.001_Plane.003
v 1.920071 -0.665060 2.620118
v 1.920000 0.665000 2.620000
v 1.920344 -0.665290 0.000571
v 1.920274 0.664769 0.000455
vt 0.000000 0.000000
vt 1.000000 0.000000
vt 1.000000 1.000000
vt 0.000000 1.000000
vn -1.0000 -0.0001 -0.0001
usemtl Glass
s off
f 31/39/12 32/40/12 34/41/12 33/42/12
o RNeighbour.001_Cube.003
v -1.920000 0.665000 2.620000
v -1.920000 0.665000 0.000000
v -1.920000 -0.665000 2.620000
v -1.920000 -0.665000 0.000000
v -5.760000 0.665000 2.620000
v -5.760000 0.665000 0.000000
v -5.760000 -0.665000 2.620000
v -5.760000 -0.665000 0.000000
v -3.840000 0.665000 0.000000
v -1.920000 0.665000 1.170000
v -5.760000 0.665000 1.170000
vt 0.875000 0.500000
vt 0.625000 0.750000
vt 0.625000 0.500000
vt 0.375000 1.000000
vt 0.375000 0.750000
vt 0.250000 0.500000
vt 0.125000 0.750000
vt 0.500000 0.500000
vt 0.375000 0.500000
vt 0.375000 0.375000
vt 0.875000 0.750000
vt 0.625000 1.000000
vt 0.125000 0.500000
vt 0.375000 0.250000
vt 0.500000 0.250000
vn 0.0000 0.0000 1.0000
vn 0.0000 -1.0000 0.0000
vn 0.0000 0.0000 -1.0000
vn 0.0000 1.0000 0.0000
usemtl Material
s off
f 39/43/13 37/44/13 35/45/13
f 37/44/14 42/46/14 38/47/14
f 43/48/15 38/47/15 42/49/15
f 44/50/16 36/51/16 43/52/16
f 39/43/13 41/53/13 37/44/13
f 37/44/14 41/54/14 42/46/14
f 42/49/15 40/55/15 43/48/15
f 43/48/15 36/51/15 38/47/15
f 43/52/16 40/56/16 45/57/16
f 45/57/16 44/50/16 43/52/16
